ply
format ascii 1.0
element vertex 100
property float x
property float y
property float z
end_header
0 0 0
0 0.348995 9.99391
0 1.04672 19.9726
0 2.09269 29.9269
0 3.48623 39.8478
0 5.22642 49.7261
0 7.31216 59.5528
0 9.74212 69.3188
0 12.5148 79.0151
0 15.6283 88.6327
0 19.0809 98.1627
0 22.8703 107.596
0 26.9941 116.924
0 31.4499 126.138
0 36.2347 135.23
0 41.3456 144.189
0 46.7795 153.009
0 52.5329 161.68
0 58.6023 170.193
0 64.9838 178.542
0 71.6736 186.716
0 78.6674 194.709
0 85.9609 202.511
0 93.5495 210.116
0 101.428 217.514
0 109.593 224.699
0 118.038 231.662
0 126.757 238.396
0 135.747 244.894
0 145 251.148
0 154.511 257.15
0 164.275 262.895
0 174.285 268.375
0 184.534 273.583
0 195.016 278.512
0 205.725 283.156
0 216.654 287.509
0 227.795 291.564
0 239.142 295.316
0 250.687 298.758
0 262.424 301.884
0 274.344 304.69
0 286.439 307.169
0 298.703 309.316
0 311.127 311.127
0 323.703 312.597
0 336.423 313.72
0 349.278 314.492
0 362.261 314.909
0 375.362 314.966
0 388.573 314.66
0 401.886 313.988
0 415.291 312.944
0 428.779 311.526
0 442.342 309.732
0 455.971 307.556
0 469.656 304.998
0 483.388 302.054
0 497.157 298.722
0 510.955 295
0 524.772 290.886
0 538.598 286.378
0 552.424 281.474
0 566.241 276.174
0 580.037 270.476
0 593.805 264.379
0 607.534 257.883
0 621.214 250.987
0 634.835 243.691
0 648.388 235.994
0 661.864 227.898
0 675.251 219.402
0 688.54 210.508
0 701.722 201.216
0 714.786 191.526
0 727.723 181.442
0 740.522 170.963
0 753.174 160.092
0 765.67 148.831
0 777.999 137.182
0 790.151 125.148
0 802.118 112.73
0 813.889 99.9331
0 825.454 86.7588
0 836.804 73.211
0 847.93 59.2932
0 858.822 45.0091
0 869.471 30.3627
0 879.867 15.3582
0 890.001 0.000102781
0 899.864 -15.7071
0 909.447 -31.7585
0 918.74 -48.149
0 927.736 -64.8735
0 936.424 -81.9264
0 944.797 -99.3021
0 952.846 -116.995
0 960.561 -134.998
0 967.936 -153.306
0 974.961 -171.912
